<?xml version="1.0" encoding="UTF-8" standalone="no"?>
<svg
   width="512"
   height="211"
   viewBox="0 0 512 211"
   fill="none"
   version="1.1"
   id="svg38"
   sodipodi:docname="flutterkaigi-navbar_logo.svg"
   inkscape:version="1.1 (c68e22c387, 2021-05-23)"
   xmlns:inkscape="http://www.inkscape.org/namespaces/inkscape"
   xmlns:sodipodi="http://sodipodi.sourceforge.net/DTD/sodipodi-0.dtd"
   xmlns="http://www.w3.org/2000/svg"
   xmlns:svg="http://www.w3.org/2000/svg">
  <defs
     id="defs42" />
  <sodipodi:namedview
     id="namedview40"
     pagecolor="#ffffff"
     bordercolor="#666666"
     borderopacity="1.0"
     inkscape:pageshadow="2"
     inkscape:pageopacity="0.0"
     inkscape:pagecheckerboard="0"
     showgrid="false"
     showguides="true"
     inkscape:guide-bbox="true"
     inkscape:zoom="2.0664062"
     inkscape:cx="255.75803"
     inkscape:cy="105.73913"
     inkscape:window-width="1920"
     inkscape:window-height="1017"
     inkscape:window-x="-8"
     inkscape:window-y="-8"
     inkscape:window-maximized="1"
     inkscape:current-layer="svg38" />
  <path
     d="M142.495 94.207H167.345V99.1997H148.488V114.618H165.883V119.611H148.488V140.609H142.495V94.207V94.207Z"
     fill="black"
     id="path2" />
  <path
     d="M175.969 91.7107H181.962V140.609H175.969V91.7107Z"
     fill="black"
     id="path4" />
  <path
     d="M221.283 131.505C221.283 135.029 221.429 137.966 221.576 140.609H216.313L216.021 135.176H215.875C214.413 137.819 210.905 141.344 204.912 141.344C199.649 141.344 193.51 138.407 193.51 126.806V107.423H199.503V125.778C199.503 132.093 201.403 136.498 206.958 136.498C211.051 136.498 213.828 133.708 214.998 130.918C215.29 130.037 215.582 129.009 215.582 127.834V107.423H221.576V131.505H221.283Z"
     fill="black"
     id="path6" />
  <path
     d="M239.848 97.7313V107.276H248.472V111.828H239.848V129.89C239.848 134.001 241.017 136.351 244.379 136.351C245.987 136.351 247.01 136.204 247.887 135.91L248.18 140.463C247.01 140.903 245.11 141.344 242.771 141.344C239.994 141.344 237.655 140.463 236.193 138.847C234.585 136.938 233.854 134.001 233.854 130.184V111.975H228.738V107.423H233.854V99.3465L239.848 97.7313Z"
     fill="black"
     id="path8" />
  <path
     d="M265.282 97.7313V107.276H273.906V111.828H265.282V129.89C265.282 134.001 266.451 136.351 269.813 136.351C271.421 136.351 272.445 136.204 273.322 135.91L273.614 140.463C272.445 140.903 270.544 141.344 268.206 141.344C265.428 141.344 263.089 140.463 261.628 138.847C260.02 136.938 259.289 134.001 259.289 130.184V111.975H254.173V107.423H259.289V99.3465L265.282 97.7313Z"
     fill="black"
     id="path10" />
  <path
     d="M285.162 125.044C285.308 133.267 290.424 136.645 296.564 136.645C300.949 136.645 303.58 135.91 305.773 134.883L306.796 139.141C304.749 140.169 300.949 141.197 295.687 141.197C285.454 141.197 279.315 134.442 279.315 124.31C279.315 114.178 285.308 106.395 294.956 106.395C305.773 106.395 308.55 115.94 308.55 122.107C308.55 123.429 308.55 124.31 308.404 124.897H285.162V125.044ZM302.849 120.786C302.849 116.968 301.241 110.947 294.517 110.947C288.378 110.947 285.747 116.527 285.308 120.786H302.849Z"
     fill="black"
     id="path12" />
  <path
     d="M317.467 117.702C317.467 113.737 317.321 110.36 317.174 107.276H322.437L322.729 113.884H322.875C324.483 109.479 328.138 106.542 332.084 106.542C332.669 106.542 333.254 106.542 333.692 106.689V112.416C333.107 112.269 332.523 112.269 331.646 112.269C327.407 112.269 324.337 115.499 323.606 120.051C323.46 120.932 323.314 121.96 323.314 122.841V140.609H317.321V117.702H317.467Z"
     fill="black"
     id="path14" />
  <path
     d="m 341.04491,94.207 h 5.993 v 22.467 h 0.147 c 1.169,-1.762 2.485,-3.377 3.654,-4.993 l 14.179,-17.474 h 7.455 l -16.664,19.677 17.98,26.725 h -7.017 l -15.348,-22.76 -4.386,5.139 v 17.621 h -5.993 z"
     fill="#000000"
     id="path16" />
  <path
     d="m 398.93091,140.609 -0.585,-4.258 h -0.146 c -1.754,2.643 -5.409,4.993 -10.086,4.993 -6.724,0 -10.086,-4.846 -10.086,-9.545 0,-8.077 7.162,-12.482 19.879,-12.482 v -0.734 c 0,-2.643 -0.73,-7.783 -7.601,-7.636 -3.069,0 -6.285,0.881 -8.624,2.496 l -1.316,-3.964 c 2.778,-1.762 6.724,-2.937 10.963,-2.937 10.087,0 12.572,6.901 12.572,13.656 v 12.482 c 0,2.79 0.146,5.727 0.438,7.929 h -5.408 z m -0.877,-16.887 c -6.578,-0.146 -14.033,1.028 -14.033,7.489 0,3.965 2.631,5.874 5.701,5.874 4.385,0 7.162,-2.79 8.039,-5.58 0.146,-0.587 0.293,-1.321 0.293,-1.909 v -5.874 z"
     fill="#000000"
     id="path18" />
  <path
     d="m 421.73391,97.8781 c 0,2.0558 -1.462,3.8179 -3.801,3.8179 -2.192,0 -3.654,-1.7621 -3.654,-3.8179 0,-2.0558 1.608,-3.8179 3.801,-3.8179 2.192,0.1469 3.654,1.7621 3.654,3.8179 z m -6.724,42.7309 v -33.186 h 5.993 v 33.333 h -5.993 z"
     fill="#000000"
     id="path20" />
  <path
     d="m 461.05491,107.423 c -0.146,2.349 -0.292,4.993 -0.292,9.104 v 19.237 c 0,7.782 -1.608,12.334 -4.678,15.271 -3.216,2.937 -7.893,3.965 -12.132,3.965 -3.947,0 -8.332,-0.881 -11.11,-2.79 l 1.462,-4.699 c 2.193,1.322 5.555,2.643 9.794,2.643 6.139,0 10.671,-3.23 10.671,-11.747 v -3.671 h -0.147 c -1.754,3.083 -5.408,5.58 -10.524,5.58 -8.332,0 -14.179,-7.049 -14.179,-16.3 0,-11.307 7.309,-17.621 14.91,-17.621 5.7,0 8.916,2.937 10.378,5.727 h 0.146 l 0.293,-4.993 h 5.408 z m -6.285,13.069 c 0,-1.028 -0.147,-1.909 -0.293,-2.643 -1.169,-3.524 -4.093,-6.461 -8.478,-6.461 -5.701,0 -9.94,4.845 -9.94,12.628 0,6.461 3.362,12.041 9.794,12.041 3.8,0 7.162,-2.349 8.332,-6.314 0.292,-1.028 0.438,-2.203 0.438,-3.231 v -6.02 z"
     fill="#000000"
     id="path22" />
  <path
     d="m 478.44991,97.8781 c 0,2.0558 -1.462,3.8179 -3.801,3.8179 -2.192,0 -3.654,-1.7621 -3.654,-3.8179 0,-2.0558 1.608,-3.8179 3.801,-3.8179 2.192,0.1469 3.654,1.7621 3.654,3.8179 z m -6.724,42.7309 v -33.186 h 5.993 v 33.333 h -5.993 z"
     fill="#000000"
     id="path24" />
  <path
     fill-rule="evenodd"
     clip-rule="evenodd"
     d="M84.3171 152.21L58.1518 126.072L72.6231 111.241L113.552 152.21H84.3171Z"
     fill="#025193"
     id="path26" />
  <g
     opacity="0.85"
     id="g32">
    <g
       opacity="0.85"
       id="g30">
      <path
         opacity="0.85"
         fill-rule="evenodd"
         clip-rule="evenodd"
         d="M57.8594 126.072L83.8786 100.081H112.967L72.6231 140.609L57.8594 126.072Z"
         fill="#57C3EA"
         id="path28" />
    </g>
  </g>
  <path
     fill-rule="evenodd"
     clip-rule="evenodd"
     d="M35.3484 103.311L50.1121 118.142L112.968 55H83.7324L35.3484 103.311Z"
     fill="#57C3EA"
     id="path34" />
  <path
     d="M35.3484 153.825C43.8251 153.825 50.6968 146.922 50.6968 138.407C50.6968 129.891 43.8251 122.988 35.3484 122.988C26.8717 122.988 20 129.891 20 138.407C20 146.922 26.8717 153.825 35.3484 153.825Z"
     fill="#C30D23"
     id="path36" />
</svg>
