<svg width="512" height="211" viewBox="0 0 512 211" fill="none" xmlns="http://www.w3.org/2000/svg">
<path d="M142.495 94.207H167.345V99.1997H148.488V114.618H165.883V119.611H148.488V140.609H142.495V94.207V94.207Z" fill="black"/>
<path d="M175.969 91.7107H181.962V140.609H175.969V91.7107Z" fill="black"/>
<path d="M221.283 131.505C221.283 135.029 221.429 137.966 221.576 140.609H216.313L216.021 135.176H215.875C214.413 137.819 210.905 141.344 204.912 141.344C199.649 141.344 193.51 138.407 193.51 126.806V107.423H199.503V125.778C199.503 132.093 201.403 136.498 206.958 136.498C211.051 136.498 213.828 133.708 214.998 130.918C215.29 130.037 215.582 129.009 215.582 127.834V107.423H221.576V131.505H221.283Z" fill="black"/>
<path d="M239.848 97.7313V107.276H248.472V111.828H239.848V129.89C239.848 134.001 241.017 136.351 244.379 136.351C245.987 136.351 247.01 136.204 247.887 135.91L248.18 140.463C247.01 140.903 245.11 141.344 242.771 141.344C239.994 141.344 237.655 140.463 236.193 138.847C234.585 136.938 233.854 134.001 233.854 130.184V111.975H228.738V107.423H233.854V99.3465L239.848 97.7313Z" fill="black"/>
<path d="M265.282 97.7313V107.276H273.906V111.828H265.282V129.89C265.282 134.001 266.451 136.351 269.813 136.351C271.421 136.351 272.445 136.204 273.322 135.91L273.614 140.463C272.445 140.903 270.544 141.344 268.206 141.344C265.428 141.344 263.089 140.463 261.628 138.847C260.02 136.938 259.289 134.001 259.289 130.184V111.975H254.173V107.423H259.289V99.3465L265.282 97.7313Z" fill="black"/>
<path d="M285.162 125.044C285.308 133.267 290.424 136.645 296.564 136.645C300.949 136.645 303.58 135.91 305.773 134.883L306.796 139.141C304.749 140.169 300.949 141.197 295.687 141.197C285.454 141.197 279.315 134.442 279.315 124.31C279.315 114.178 285.308 106.395 294.956 106.395C305.773 106.395 308.55 115.94 308.55 122.107C308.55 123.429 308.55 124.31 308.404 124.897H285.162V125.044ZM302.849 120.786C302.849 116.968 301.241 110.947 294.517 110.947C288.378 110.947 285.747 116.527 285.308 120.786H302.849Z" fill="black"/>
<path d="M317.467 117.702C317.467 113.737 317.321 110.36 317.174 107.276H322.437L322.729 113.884H322.875C324.483 109.479 328.138 106.542 332.084 106.542C332.669 106.542 333.254 106.542 333.692 106.689V112.416C333.107 112.269 332.523 112.269 331.646 112.269C327.407 112.269 324.337 115.499 323.606 120.051C323.46 120.932 323.314 121.96 323.314 122.841V140.609H317.321V117.702H317.467Z" fill="black"/>
<path d="M354.595 94.207H360.588V116.674H360.735C361.904 114.912 363.22 113.297 364.389 111.681L378.568 94.207H386.023L369.359 113.884L387.339 140.609H380.322L364.974 117.849L360.588 122.988V140.609H354.595V94.207Z" fill="black"/>
<path d="M412.481 140.609L411.896 136.351H411.75C409.996 138.994 406.341 141.344 401.664 141.344C394.94 141.344 391.578 136.498 391.578 131.799C391.578 123.722 398.74 119.317 411.457 119.317V118.583C411.457 115.94 410.727 110.8 403.856 110.947C400.787 110.947 397.571 111.828 395.232 113.443L393.916 109.479C396.694 107.717 400.64 106.542 404.879 106.542C414.966 106.542 417.451 113.443 417.451 120.198V132.68C417.451 135.47 417.597 138.407 417.889 140.609H412.481V140.609ZM411.604 123.722C405.026 123.576 397.571 124.75 397.571 131.211C397.571 135.176 400.202 137.085 403.272 137.085C407.657 137.085 410.434 134.295 411.311 131.505C411.457 130.918 411.604 130.184 411.604 129.596V123.722V123.722Z" fill="black"/>
<path d="M435.284 97.8781C435.284 99.9339 433.822 101.696 431.483 101.696C429.291 101.696 427.829 99.9339 427.829 97.8781C427.829 95.8223 429.437 94.0602 431.63 94.0602C433.822 94.2071 435.284 95.8223 435.284 97.8781ZM428.56 140.609V107.423H434.553V140.756H428.56V140.609Z" fill="black"/>
<path d="M474.605 107.423C474.459 109.772 474.313 112.416 474.313 116.527V135.764C474.313 143.546 472.705 148.098 469.635 151.035C466.419 153.972 461.742 155 457.503 155C453.556 155 449.171 154.119 446.393 152.21L447.855 147.511C450.048 148.833 453.41 150.154 457.649 150.154C463.788 150.154 468.32 146.924 468.32 138.407V134.736H468.173C466.419 137.819 462.765 140.316 457.649 140.316C449.317 140.316 443.47 133.267 443.47 124.016C443.47 112.709 450.779 106.395 458.38 106.395C464.08 106.395 467.296 109.332 468.758 112.122H468.904L469.197 107.129H474.605V107.423ZM468.32 120.492C468.32 119.464 468.173 118.583 468.027 117.849C466.858 114.325 463.934 111.388 459.549 111.388C453.848 111.388 449.609 116.233 449.609 124.016C449.609 130.477 452.971 136.057 459.403 136.057C463.203 136.057 466.565 133.708 467.735 129.743C468.027 128.715 468.173 127.54 468.173 126.512V120.492H468.32Z" fill="black"/>
<path d="M492 97.8781C492 99.9339 490.538 101.696 488.199 101.696C486.007 101.696 484.545 99.9339 484.545 97.8781C484.545 95.8223 486.153 94.0602 488.346 94.0602C490.538 94.2071 492 95.8223 492 97.8781ZM485.276 140.609V107.423H491.269V140.756H485.276V140.609Z" fill="black"/>
<path fill-rule="evenodd" clip-rule="evenodd" d="M84.3171 152.21L58.1518 126.072L72.6231 111.241L113.552 152.21H84.3171Z" fill="#025193"/>
<g opacity="0.85">
<g opacity="0.85">
<path opacity="0.85" fill-rule="evenodd" clip-rule="evenodd" d="M57.8594 126.072L83.8786 100.081H112.967L72.6231 140.609L57.8594 126.072Z" fill="#57C3EA"/>
</g>
</g>
<path fill-rule="evenodd" clip-rule="evenodd" d="M35.3484 103.311L50.1121 118.142L112.968 55H83.7324L35.3484 103.311Z" fill="#57C3EA"/>
<path d="M35.3484 153.825C43.8251 153.825 50.6968 146.922 50.6968 138.407C50.6968 129.891 43.8251 122.988 35.3484 122.988C26.8717 122.988 20 129.891 20 138.407C20 146.922 26.8717 153.825 35.3484 153.825Z" fill="#C30D23"/>
</svg>
